<?xml version="1.0" encoding="UTF-8" standalone="no"?>
<svg
   xmlns:dc="http://purl.org/dc/elements/1.1/"
   xmlns:cc="http://creativecommons.org/ns#"
   xmlns:rdf="http://www.w3.org/1999/02/22-rdf-syntax-ns#"
   xmlns:svg="http://www.w3.org/2000/svg"
   xmlns="http://www.w3.org/2000/svg"
   viewBox="0 0 244.17332 37.795864"
   height="37.795864"
   width="244.17332"
   xml:space="preserve"
   id="svg2"
   version="1.1"><metadata
     id="metadata8"><rdf:RDF><cc:Work
         rdf:about=""><dc:format>image/svg+xml</dc:format><dc:type
           rdf:resource="http://purl.org/dc/dcmitype/StillImage" /></cc:Work></rdf:RDF></metadata><defs
     id="defs6" /><g
     transform="matrix(1.3333333,0,0,-1.3333333,0,37.795866)"
     id="g10"><g
       transform="scale(0.1)"
       id="g12"><path
         id="path14"
         style="fill:#231f20;fill-opacity:1;fill-rule:nonzero;stroke:none"
         d="m 615.934,157.301 v 55.258 h 32.761 v -6.582 H 623.59 v -17.372 h 23.64 v -6.582 h -23.64 v -24.722 h -7.656" /><path
         id="path16"
         style="fill:#231f20;fill-opacity:1;fill-rule:nonzero;stroke:none"
         d="m 677.926,181.027 c 0,6.661 -0.383,10.559 -8.117,10.559 -3.672,0 -7.11,-2.141 -7.188,-6.117 h -7.656 c 0.383,8.418 6.965,11.402 14.543,11.402 7.879,0 15.691,-2.375 15.691,-13.09 v -18.367 c 0,-1.684 0.078,-4.894 0.305,-8.113 h -4.895 c -0.691,0 -1.992,-0.383 -2.07,0.535 -0.156,1.766 -0.312,3.445 -0.379,5.203 h -0.156 c -2.375,-4.82 -6.66,-6.887 -11.945,-6.887 -6.661,0 -13.387,3.45 -13.387,10.942 0,10.797 9.558,13.933 18.672,13.933 z m -7.278,-5.05 c -4.433,-0.231 -10.332,-1.836 -10.332,-7.422 0,-4.746 3.301,-7.117 7.579,-7.117 8.574,0 10.187,7.421 10.031,14.539 h -7.278" /><path
         id="path18"
         style="fill:#231f20;fill-opacity:1;fill-rule:nonzero;stroke:none"
         d="m 720.102,183.398 c -0.391,4.825 -2.684,8.188 -7.891,8.188 -6.961,0 -9.637,-6.047 -9.637,-15.07 0,-9.036 2.676,-15.078 9.637,-15.078 4.824,0 7.812,3.132 8.195,8.644 h 7.266 c -0.617,-8.644 -7.043,-13.93 -15.539,-13.93 -12.313,0 -17.215,8.719 -17.215,20.055 0,11.246 5.664,20.664 17.832,20.664 8.113,0 14.238,-5.129 14.617,-13.473 h -7.265" /><path
         id="path20"
         style="fill:#231f20;fill-opacity:1;fill-rule:nonzero;stroke:none"
         d="m 737.855,157.301 v 55.258 h 7.266 v -21.961 h 0.156 c 2.754,4.285 6.895,6.273 12.481,6.273 10.019,0 13.164,-6.656 13.164,-13.551 v -26.019 h -7.274 v 22.73 c 0,6.739 -1.769,11.102 -8.566,11.25 -2.91,0.078 -7.352,-2.14 -8.73,-5.359 -1.688,-3.977 -1.231,-6.731 -1.231,-8.875 v -19.746 h -7.266" /><path
         id="path22"
         style="fill:#231f20;fill-opacity:1;fill-rule:nonzero;stroke:none"
         d="m 784.234,157.301 v 55.258 h 7.274 v -21.961 h 0.148 c 2.762,4.285 6.883,6.273 12.469,6.273 10.039,0 13.164,-6.656 13.164,-13.551 v -26.019 h -7.266 v 22.73 c 0,6.739 -1.757,11.102 -8.574,11.25 -2.91,0.078 -7.344,-2.14 -8.719,-5.359 -1.691,-3.977 -1.222,-6.731 -1.222,-8.875 v -19.746 h -7.274" /><path
         id="path24"
         style="fill:#231f20;fill-opacity:1;fill-rule:nonzero;stroke:none"
         d="m 864.359,176.516 c 0,-11.946 -6.504,-20.364 -19.129,-20.364 -12.628,0 -19.132,8.418 -19.132,20.364 0,11.933 6.504,20.355 19.132,20.355 12.625,0 19.129,-8.422 19.129,-20.355 z M 845.23,161.438 c 8.641,0 11.473,6.882 11.473,15.078 0,8.183 -2.832,15.07 -11.473,15.07 -8.644,0 -11.476,-6.887 -11.476,-15.07 0,-8.196 2.832,-15.078 11.476,-15.078" /><path
         id="path26"
         style="fill:#231f20;fill-opacity:1;fill-rule:nonzero;stroke:none"
         d="m 896.742,183.398 c -0.39,4.825 -2.676,8.188 -7.89,8.188 -6.961,0 -9.637,-6.047 -9.637,-15.07 0,-9.036 2.676,-15.078 9.637,-15.078 4.824,0 7.812,3.132 8.195,8.644 h 7.273 c -0.613,-8.644 -7.05,-13.93 -15.547,-13.93 -12.312,0 -17.207,8.719 -17.207,20.055 0,11.246 5.657,20.664 17.832,20.664 8.106,0 14.231,-5.129 14.61,-13.473 h -7.266" /><path
         id="path28"
         style="fill:#231f20;fill-opacity:1;fill-rule:nonzero;stroke:none"
         d="m 914.496,157.301 v 55.258 h 7.266 v -21.961 h 0.156 c 2.754,4.285 6.895,6.273 12.48,6.273 10.02,0 13.165,-6.656 13.165,-13.551 v -26.019 h -7.274 v 22.73 c 0,6.739 -1.758,11.102 -8.574,11.25 -2.902,0.078 -7.344,-2.14 -8.723,-5.359 -1.679,-3.977 -1.23,-6.731 -1.23,-8.875 v -19.746 h -7.266" /><path
         id="path30"
         style="fill:#231f20;fill-opacity:1;fill-rule:nonzero;stroke:none"
         d="m 972.348,196.871 c 7.277,0 15.468,-3.062 14.933,-11.789 h -7.656 c 0.301,4.898 -3.449,6.504 -7.648,6.504 -3.907,0 -7.051,-1.836 -7.051,-6.117 0,-4.285 6.582,-4.594 9.336,-5.438 6.515,-2.14 14.015,-2.906 14.015,-11.554 0,-9.414 -9.191,-12.325 -17.07,-12.325 -8.039,0 -14.777,3.672 -14.699,12.551 h 7.656 c 0.156,-4.746 3.371,-7.265 7.813,-7.265 4.277,0 8.644,1.679 8.644,6.652 0,8.574 -23.34,2.144 -23.34,17.144 0,8.039 8.114,11.637 15.067,11.637" /><path
         id="path32"
         style="fill:#231f20;fill-opacity:1;fill-rule:nonzero;stroke:none"
         d="m 1020.41,183.398 c -0.37,4.825 -2.67,8.188 -7.87,8.188 -6.97,0 -9.65,-6.047 -9.65,-15.07 0,-9.036 2.68,-15.078 9.65,-15.078 4.82,0 7.81,3.132 8.19,8.644 h 7.26 c -0.6,-8.644 -7.03,-13.93 -15.53,-13.93 -12.32,0 -17.222,8.719 -17.222,20.055 0,11.246 5.662,20.664 17.832,20.664 8.12,0 14.24,-5.129 14.62,-13.473 h -7.28" /><path
         id="path34"
         style="fill:#231f20;fill-opacity:1;fill-rule:nonzero;stroke:none"
         d="m 1038.18,157.301 v 55.258 h 7.27 v -21.961 h 0.15 c 2.76,4.285 6.88,6.273 12.47,6.273 10.03,0 13.16,-6.656 13.16,-13.551 v -26.019 h -7.26 v 22.73 c 0,6.739 -1.76,11.102 -8.58,11.25 -2.91,0.078 -7.34,-2.14 -8.73,-5.359 -1.68,-3.977 -1.21,-6.731 -1.21,-8.875 v -19.746 h -7.27" /><path
         id="path36"
         style="fill:#231f20;fill-opacity:1;fill-rule:nonzero;stroke:none"
         d="m 1108.81,195.723 h 7.28 v -38.422 h -7.12 v 5.664 h -0.16 c -2.91,-4.82 -7.8,-6.813 -13.16,-6.813 -8.03,0 -12.63,6.125 -12.63,13.852 v 25.719 h 7.28 v -22.731 c 0,-6.66 1.53,-11.554 8.49,-11.554 2.99,0 7.05,1.527 8.58,5.507 1.36,3.594 1.44,8.114 1.44,9.032 v 19.746" /><path
         id="path38"
         style="fill:#231f20;fill-opacity:1;fill-rule:nonzero;stroke:none"
         d="m 1128.03,157.301 v 55.258 h 7.27 v -55.258 h -7.27" /><path
         id="path40"
         style="fill:#231f20;fill-opacity:1;fill-rule:nonzero;stroke:none"
         d="m 1153.44,175.137 c -0.53,-6.739 2.22,-13.699 9.64,-13.699 5.65,0 8.49,2.214 9.33,7.804 h 7.65 c -1.13,-8.722 -7.87,-13.09 -17.06,-13.09 -12.31,0 -17.21,8.719 -17.21,20.055 0,11.246 5.66,20.664 17.83,20.664 11.48,-0.23 16.91,-7.504 16.91,-18.141 v -3.593 z m 19.44,5.051 c 0.15,6.425 -2.76,11.398 -9.8,11.398 -6.04,0 -9.64,-5.129 -9.64,-11.398 h 19.44" /><path
         id="path42"
         style="fill:#231f20;fill-opacity:1;fill-rule:nonzero;stroke:none"
         d="m 1253.85,212.559 v -55.258 h -9.49 l -27.93,46.918 h -0.16 v -46.918 h -6.81 v 55.258 h 10.49 l 26.93,-45.692 h 0.16 v 45.692 h 6.81" /><path
         id="path44"
         style="fill:#231f20;fill-opacity:1;fill-rule:nonzero;stroke:none"
         d="m 1302.84,176.516 c 0,-11.946 -6.51,-20.364 -19.14,-20.364 -12.62,0 -19.13,8.418 -19.13,20.364 0,11.933 6.51,20.355 19.13,20.355 12.63,0 19.14,-8.422 19.14,-20.355 z m -19.14,-15.078 c 8.65,0 11.48,6.882 11.48,15.078 0,8.183 -2.83,15.07 -11.48,15.07 -8.65,0 -11.48,-6.887 -11.48,-15.07 0,-8.196 2.83,-15.078 11.48,-15.078" /><path
         id="path46"
         style="fill:#231f20;fill-opacity:1;fill-rule:nonzero;stroke:none"
         d="m 1319.52,157.301 h -7.27 v 38.422 h 7.27 v -7.422 h 0.15 c 1.08,5.277 5.98,7.961 11.25,7.961 0.92,0 1.68,-0.078 2.52,-0.078 v -6.887 c -0.99,0.375 -2.14,0.375 -3.13,0.375 -9.19,-0.305 -10.79,-5.199 -10.79,-13.313 v -19.058" /><path
         id="path48"
         style="fill:#231f20;fill-opacity:1;fill-rule:nonzero;stroke:none"
         d="m 1365.67,212.559 h 7.26 v -48.446 c 0,-2.297 0.24,-4.59 0.39,-6.812 h -7.42 l -0.23,5.738 v 0.383 h -0.16 c -2.6,-5.356 -7.65,-7.27 -13.24,-7.27 -11.41,0 -15.92,10.489 -15.92,20.364 0,10.402 5.29,20.355 17.23,20.355 4.89,0 9.72,-1.762 11.93,-6.351 h 0.16 z m -10.79,-51.356 c 8.8,0 10.87,8.192 10.87,15.383 0,6.969 -2.61,15.234 -10.87,15.234 -8.72,0 -10.87,-8.039 -10.87,-15.234 0,-7.191 2.67,-15.383 10.87,-15.383" /><path
         id="path50"
         style="fill:#231f20;fill-opacity:1;fill-rule:nonzero;stroke:none"
         d="m 1441.9,195.723 -13.56,-38.422 h -8.26 l -8.95,31.609 h -0.15 l -9.96,-31.609 h -8.48 l -12.71,38.422 h 7.88 l 9.26,-30.922 h 0.16 l 9.55,30.922 h 9.42 l 8.65,-30.309 h 0.16 l 9.57,30.309 h 7.42" /><path
         id="path52"
         style="fill:#231f20;fill-opacity:1;fill-rule:nonzero;stroke:none"
         d="m 1453.91,175.137 c -0.53,-6.739 2.22,-13.699 9.65,-13.699 5.66,0 8.49,2.214 9.33,7.804 h 7.65 c -1.14,-8.722 -7.88,-13.09 -17.06,-13.09 -12.32,0 -17.23,8.719 -17.23,20.055 0,11.246 5.67,20.664 17.84,20.664 11.48,-0.23 16.91,-7.504 16.91,-18.141 v -3.593 z m 19.45,5.051 c 0.14,6.425 -2.77,11.398 -9.8,11.398 -6.06,0 -9.65,-5.129 -9.65,-11.398 h 19.45" /><path
         id="path54"
         style="fill:#231f20;fill-opacity:1;fill-rule:nonzero;stroke:none"
         d="m 1504.05,196.871 c 7.26,0 15.45,-3.062 14.92,-11.789 h -7.66 c 0.31,4.898 -3.43,6.504 -7.65,6.504 -3.91,0 -7.04,-1.836 -7.04,-6.117 0,-4.285 6.58,-4.594 9.34,-5.438 6.5,-2.14 14,-2.906 14,-11.554 0,-9.414 -9.18,-12.325 -17.07,-12.325 -8.03,0 -14.76,3.672 -14.69,12.551 h 7.66 c 0.14,-4.746 3.36,-7.265 7.8,-7.265 4.29,0 8.65,1.679 8.65,6.652 0,8.574 -23.34,2.144 -23.34,17.144 0,8.039 8.1,11.637 15.08,11.637" /><path
         id="path56"
         style="fill:#231f20;fill-opacity:1;fill-rule:nonzero;stroke:none"
         d="m 1532.36,195.723 v 8.187 l 7.27,2.293 v -10.48 l 8.88,0.23 v -5.433 l -8.88,0.078 v -24.805 c 0,-2.754 2.15,-4.055 4.75,-4.055 1.15,0 2.67,0.157 3.83,0.461 v -5.586 c -1.69,-0.078 -3.29,-0.461 -4.98,-0.461 -1.76,0 -3.14,0.078 -4.89,0.383 -1.16,0.235 -3.07,0.844 -4.29,2.528 -1.31,1.835 -1.69,1.988 -1.69,7.113 v 24.422 l -6.57,-0.078 v 5.433 l 6.57,-0.23" /><path
         id="path58"
         style="fill:#231f20;fill-opacity:1;fill-rule:nonzero;stroke:none"
         d="m 1570.47,196.871 c 7.27,0 15.47,-3.062 14.92,-11.789 h -7.65 c 0.31,4.898 -3.44,6.504 -7.65,6.504 -3.89,0 -7.04,-1.836 -7.04,-6.117 0,-4.285 6.58,-4.594 9.34,-5.438 6.5,-2.14 14,-2.906 14,-11.554 0,-9.414 -9.18,-12.325 -17.07,-12.325 -8.03,0 -14.77,3.672 -14.69,12.551 h 7.66 c 0.16,-4.746 3.36,-7.265 7.8,-7.265 4.29,0 8.64,1.679 8.64,6.652 0,8.574 -23.34,2.144 -23.34,17.144 0,8.039 8.12,11.637 15.08,11.637" /><path
         id="path60"
         style="fill:#231f20;fill-opacity:1;fill-rule:nonzero;stroke:none"
         d="m 1618.54,183.398 c -0.39,4.825 -2.68,8.188 -7.88,8.188 -6.96,0 -9.64,-6.047 -9.64,-15.07 0,-9.036 2.68,-15.078 9.64,-15.078 4.81,0 7.8,3.132 8.19,8.644 h 7.27 c -0.62,-8.644 -7.05,-13.93 -15.54,-13.93 -12.31,0 -17.22,8.719 -17.22,20.055 0,11.246 5.67,20.664 17.84,20.664 8.1,0 14.23,-5.129 14.6,-13.473 h -7.26" /><path
         id="path62"
         style="fill:#231f20;fill-opacity:1;fill-rule:nonzero;stroke:none"
         d="m 1635.91,157.301 v 55.258 h 7.28 v -21.961 h 0.15 c 2.75,4.285 6.88,6.273 12.46,6.273 10.04,0 13.17,-6.656 13.17,-13.551 v -26.019 h -7.27 v 22.73 c 0,6.739 -1.75,11.102 -8.57,11.25 -2.91,0.078 -7.34,-2.14 -8.73,-5.359 -1.68,-3.977 -1.21,-6.731 -1.21,-8.875 v -19.746 h -7.28" /><path
         id="path64"
         style="fill:#231f20;fill-opacity:1;fill-rule:nonzero;stroke:none"
         d="m 1736.78,195.723 -13.54,-38.422 h -8.28 l -8.94,31.609 h -0.16 l -9.94,-31.609 h -8.49 l -12.72,38.422 h 7.89 l 9.26,-30.922 h 0.16 l 9.57,30.922 h 9.41 l 8.64,-30.309 h 0.15 l 9.57,30.309 h 7.42" /><path
         id="path66"
         style="fill:#231f20;fill-opacity:1;fill-rule:nonzero;stroke:none"
         d="m 1748.8,175.137 c -0.53,-6.739 2.22,-13.699 9.64,-13.699 5.67,0 8.5,2.214 9.34,7.804 h 7.65 c -1.15,-8.722 -7.88,-13.09 -17.07,-13.09 -12.31,0 -17.21,8.719 -17.21,20.055 0,11.246 5.66,20.664 17.83,20.664 11.48,-0.23 16.91,-7.504 16.91,-18.141 v -3.593 z m 19.45,5.051 c 0.14,6.425 -2.76,11.398 -9.81,11.398 -6.04,0 -9.64,-5.129 -9.64,-11.398 h 19.45" /><path
         id="path68"
         style="fill:#231f20;fill-opacity:1;fill-rule:nonzero;stroke:none"
         d="m 1784.63,212.559 h 8.64 v -7.887 h -8.64 z m 0.68,-55.258 v 38.422 h 7.27 v -38.422 h -7.27" /><path
         id="path70"
         style="fill:#231f20;fill-opacity:1;fill-rule:nonzero;stroke:none"
         d="m 1831.3,157.301 h -27.92 v 5.054 l 19.36,28.313 h -19.06 v 5.055 h 26.86 v -5.055 l -19.29,-28.313 h 20.05 v -5.054" /><path
         id="path72"
         style="fill:#231f20;fill-opacity:1;fill-rule:nonzero;stroke:none"
         d="m 615.902,126.121 h 18.516 c 10.254,0.453 19.141,-3.367 19.141,-15.465 0,-11.5544 -9.414,-15.2263 -19.59,-15.449 h -10.41 V 70.8594 h -7.657 z m 19.668,-24.332 c 0.918,0 9.953,-0.469 9.953,8.867 0,9.344 -9.035,8.887 -9.953,8.887 h -12.011 v -17.754 h 12.011" /><path
         id="path74"
         style="fill:#231f20;fill-opacity:1;fill-rule:nonzero;stroke:none"
         d="m 682.953,94.5898 c 0,6.6522 -0.39,10.5582 -8.113,10.5582 -3.684,0 -7.121,-2.14 -7.199,-6.1128 h -7.657 c 0.391,8.4058 6.973,11.3948 14.551,11.3948 7.871,0 15.684,-2.371 15.684,-13.0862 V 78.9766 c 0,-1.6797 0.078,-4.9024 0.304,-8.1172 h -4.894 c -0.684,0 -1.992,-0.3789 -2.07,0.539 -0.157,1.7579 -0.313,3.4454 -0.379,5.2032 h -0.149 c -2.383,-4.8243 -6.66,-6.8828 -11.953,-6.8828 -6.66,0 -13.379,3.4375 -13.379,10.9375 0,10.789 9.551,13.9335 18.672,13.9335 z m -18.828,23.7232 v 7.808 h 6.953 v -7.808 z M 675.68,89.5313 c -4.446,-0.2227 -10.344,-1.836 -10.344,-7.4219 0,-4.7383 3.301,-7.1172 7.59,-7.1172 8.562,0 10.183,7.4219 10.027,14.5391 z m 2.832,28.7817 v 7.808 h 6.961 v -7.808 h -6.961" /><path
         id="path76"
         style="fill:#231f20;fill-opacity:1;fill-rule:nonzero;stroke:none"
         d="m 728.48,126.121 h 7.278 V 77.6758 c 0,-2.293 0.222,-4.5977 0.379,-6.8164 h -7.422 l -0.235,5.7422 v 0.3828 h -0.144 c -2.609,-5.3516 -7.656,-7.2656 -13.242,-7.2656 -11.399,0 -15.918,10.4882 -15.918,20.3515 0,10.4097 5.281,20.3597 17.215,20.3597 4.902,0 9.726,-1.766 11.945,-6.356 h 0.144 z M 717.699,74.7656 c 8.801,0 10.86,8.1953 10.86,15.3828 0,6.9727 -2.598,15.2346 -10.86,15.2346 -8.73,0 -10.879,-8.0392 -10.879,-15.2346 0,-7.1875 2.688,-15.3828 10.879,-15.3828" /><path
         id="path78"
         style="fill:#231f20;fill-opacity:1;fill-rule:nonzero;stroke:none"
         d="m 769.965,94.5898 c 0,6.6522 -0.379,10.5582 -8.106,10.5582 -3.679,0 -7.129,-2.14 -7.207,-6.1128 h -7.644 c 0.379,8.4058 6.961,11.3948 14.539,11.3948 7.891,0 15.683,-2.371 15.683,-13.0862 V 78.9766 c 0,-1.6797 0.079,-4.9024 0.313,-8.1172 h -4.902 c -0.684,0 -1.981,-0.3789 -2.059,0.539 -0.148,1.7579 -0.305,3.4454 -0.383,5.2032 h -0.156 c -2.371,-4.8243 -6.66,-6.8828 -11.934,-6.8828 -6.66,0 -13.398,3.4375 -13.398,10.9375 0,10.789 9.57,13.9335 18.672,13.9335 z m -7.266,-5.0585 c -4.441,-0.2227 -10.332,-1.836 -10.332,-7.4219 0,-4.7383 3.281,-7.1172 7.578,-7.1172 8.575,0 10.176,7.4219 10.02,14.5391 h -7.266" /><path
         id="path80"
         style="fill:#231f20;fill-opacity:1;fill-rule:nonzero;stroke:none"
         d="m 815.434,109.277 h 7.5 c -0.235,-2.293 -0.469,-4.589 -0.469,-6.882 V 75.3828 c 0,-14.082 -6.113,-19.8242 -20.195,-19.8242 -8.27,0 -14.161,3.5156 -14.239,12.3906 h 7.657 c 0.304,-5.125 3.82,-7.1172 8.945,-7.1172 10.332,0 10.332,8.5743 10.566,17.2266 h -0.234 c -2.285,-4.5898 -7.871,-6.5039 -12.617,-6.5039 -11.719,0 -16.387,8.2617 -16.387,19.0508 0,11.1055 6.203,19.8245 17.832,19.8245 3.75,0 7.891,-1.532 10.254,-5.047 0.156,-0.156 1.152,-2.375 1.152,-1.836 z M 804.41,76.8281 c 7.879,0 10.789,6.7383 10.789,14.1602 0,7.4297 -2.91,14.1597 -10.789,14.1597 -8.496,0 -10.793,-8.105 -10.793,-14.1597 0,-6.0469 2.297,-14.1602 10.793,-14.1602" /><path
         id="path82"
         style="fill:#231f20;fill-opacity:1;fill-rule:nonzero;stroke:none"
         d="m 869.086,90.0703 c 0,-11.9336 -6.504,-20.3515 -19.141,-20.3515 -12.625,0 -19.129,8.4179 -19.129,20.3515 0,11.9417 6.504,20.3597 19.129,20.3597 12.637,0 19.141,-8.418 19.141,-20.3597 z M 849.945,74.9922 c 8.653,0 11.485,6.8945 11.485,15.0781 0,8.1914 -2.832,15.0777 -11.485,15.0777 -8.652,0 -11.484,-6.8863 -11.484,-15.0777 0,-8.1836 2.832,-15.0781 11.484,-15.0781" /><path
         id="path84"
         style="fill:#231f20;fill-opacity:1;fill-rule:nonzero;stroke:none"
         d="m 905.512,109.277 h 7.5 c -0.235,-2.293 -0.469,-4.589 -0.469,-6.882 V 75.3828 c 0,-14.082 -6.113,-19.8242 -20.195,-19.8242 -8.262,0 -14.16,3.5156 -14.239,12.3906 h 7.657 c 0.312,-5.125 3.828,-7.1172 8.945,-7.1172 10.344,0 10.344,8.5743 10.566,17.2266 h -0.222 c -2.297,-4.5898 -7.883,-6.5039 -12.629,-6.5039 -11.719,0 -16.387,8.2617 -16.387,19.0508 0,11.1055 6.211,19.8245 17.832,19.8245 3.75,0 7.891,-1.532 10.266,-5.047 0.144,-0.156 1.14,-2.375 1.14,-1.836 z M 894.488,76.8281 c 7.879,0 10.789,6.7383 10.789,14.1602 0,7.4297 -2.91,14.1597 -10.789,14.1597 -8.488,0 -10.793,-8.105 -10.793,-14.1597 0,-6.0469 2.305,-14.1602 10.793,-14.1602" /><path
         id="path86"
         style="fill:#231f20;fill-opacity:1;fill-rule:nonzero;stroke:none"
         d="m 924.105,126.121 h 8.653 v -7.887 h -8.653 z m 0.696,-55.2616 v 38.4176 h 7.265 V 70.8594 h -7.265" /><path
         id="path88"
         style="fill:#231f20;fill-opacity:1;fill-rule:nonzero;stroke:none"
         d="m 957.016,110.43 c 7.277,0 15.468,-3.067 14.922,-11.7855 h -7.645 c 0.301,4.9025 -3.449,6.5035 -7.656,6.5035 -3.899,0 -7.043,-1.835 -7.043,-6.1128 0,-4.2969 6.582,-4.6016 9.336,-5.4414 6.504,-2.1485 14.004,-2.9102 14.004,-11.5508 0,-9.4258 -9.18,-12.3242 -17.059,-12.3242 -8.039,0 -14.777,3.6718 -14.699,12.5468 h 7.656 c 0.148,-4.7461 3.359,-7.2734 7.805,-7.2734 4.285,0 8.652,1.6875 8.652,6.6601 0,8.5743 -23.351,2.1485 -23.351,17.1485 0,8.0272 8.117,11.6292 15.078,11.6292" /><path
         id="path90"
         style="fill:#231f20;fill-opacity:1;fill-rule:nonzero;stroke:none"
         d="m 1003.55,96.9648 c -0.38,4.8242 -2.67,8.1832 -7.882,8.1832 -6.961,0 -9.648,-6.0464 -9.648,-15.0777 0,-9.0234 2.687,-15.0781 9.648,-15.0781 4.822,0 7.812,3.1445 8.182,8.6523 h 7.28 c -0.62,-8.6523 -7.04,-13.9257 -15.54,-13.9257 -12.324,0 -17.215,8.7187 -17.215,20.0468 0,11.2504 5.664,20.6644 17.832,20.6644 8.113,0 14.223,-5.125 14.613,-13.4652 h -7.27" /><path
         id="path92"
         style="fill:#231f20;fill-opacity:1;fill-rule:nonzero;stroke:none"
         d="m 1019.4,70.8594 v 55.2616 h 7.26 v -21.969 h 0.16 c 2.75,4.286 6.89,6.278 12.48,6.278 10.02,0 13.16,-6.66 13.16,-13.5433 V 70.8594 h -7.27 v 22.7344 c 0,6.7302 -1.77,11.0942 -8.57,11.2502 -2.91,0.07 -7.35,-2.137 -8.73,-5.3596 -1.68,-3.9766 -1.23,-6.7383 -1.23,-8.8789 V 70.8594 h -7.26" /><path
         id="path94"
         style="fill:#231f20;fill-opacity:1;fill-rule:nonzero;stroke:none"
         d="m 1069.67,88.6914 c -0.53,-6.7266 2.23,-13.6992 9.65,-13.6992 5.66,0 8.5,2.2266 9.34,7.8125 h 7.65 c -1.15,-8.7305 -7.88,-13.0859 -17.07,-13.0859 -12.32,0 -17.21,8.7187 -17.21,20.0468 0,11.2504 5.66,20.6644 17.83,20.6644 11.47,-0.223 16.91,-7.5 16.91,-18.1331 v -3.6055 z m 19.45,5.0508 c 0.15,6.4338 -2.76,11.4058 -9.8,11.4058 -6.04,0 -9.65,-5.128 -9.65,-11.4058 h 19.45" /><path
         id="path96"
         style="fill:#231f20;fill-opacity:1;fill-rule:nonzero;stroke:none"
         d="m 1126.55,70.8594 v 55.2616 h 7.65 v -23.726 h 26.25 v 23.726 h 7.66 V 70.8594 h -7.66 V 95.8125 H 1134.2 V 70.8594 h -7.65" /><path
         id="path98"
         style="fill:#231f20;fill-opacity:1;fill-rule:nonzero;stroke:none"
         d="m 1216.31,90.0703 c 0,-11.9336 -6.5,-20.3515 -19.12,-20.3515 -12.64,0 -19.14,8.4179 -19.14,20.3515 0,11.9417 6.5,20.3597 19.14,20.3597 12.62,0 19.12,-8.418 19.12,-20.3597 z m -19.12,-15.0781 c 8.63,0 11.47,6.8945 11.47,15.0781 0,8.1914 -2.84,15.0777 -11.47,15.0777 -8.65,0 -11.48,-6.8863 -11.48,-15.0777 0,-8.1836 2.83,-15.0781 11.48,-15.0781" /><path
         id="path100"
         style="fill:#231f20;fill-opacity:1;fill-rule:nonzero;stroke:none"
         d="m 1249.07,96.9648 c -0.37,4.8242 -2.68,8.1832 -7.87,8.1832 -6.98,0 -9.65,-6.0464 -9.65,-15.0777 0,-9.0234 2.67,-15.0781 9.65,-15.0781 4.82,0 7.81,3.1445 8.18,8.6523 h 7.26 c -0.6,-8.6523 -7.03,-13.9257 -15.52,-13.9257 -12.33,0 -17.23,8.7187 -17.23,20.0468 0,11.2504 5.66,20.6644 17.83,20.6644 8.13,0 14.24,-5.125 14.63,-13.4652 h -7.28" /><path
         id="path102"
         style="fill:#231f20;fill-opacity:1;fill-rule:nonzero;stroke:none"
         d="m 1266.06,70.8594 v 55.2616 h 7.28 v -21.969 h 0.15 c 2.76,4.286 6.89,6.278 12.47,6.278 10.03,0 13.17,-6.66 13.17,-13.5433 V 70.8594 h -7.27 v 22.7344 c 0,6.7302 -1.76,11.0942 -8.57,11.2502 -2.91,0.07 -7.35,-2.137 -8.74,-5.3596 -1.67,-3.9766 -1.21,-6.7383 -1.21,-8.8789 V 70.8594 h -7.28" /><path
         id="path104"
         style="fill:#231f20;fill-opacity:1;fill-rule:nonzero;stroke:none"
         d="m 1323.93,110.43 c 7.27,0 15.45,-3.067 14.92,-11.7855 h -7.65 c 0.3,4.9025 -3.44,6.5035 -7.66,6.5035 -3.91,0 -7.03,-1.835 -7.03,-6.1128 0,-4.2969 6.58,-4.6016 9.33,-5.4414 6.51,-2.1485 14.01,-2.9102 14.01,-11.5508 0,-9.4258 -9.19,-12.3242 -17.07,-12.3242 -8.03,0 -14.77,3.6718 -14.69,12.5468 h 7.65 c 0.14,-4.7461 3.37,-7.2734 7.8,-7.2734 4.3,0 8.65,1.6875 8.65,6.6601 0,8.5743 -23.34,2.1485 -23.34,17.1485 0,8.0272 8.11,11.6292 15.08,11.6292" /><path
         id="path106"
         style="fill:#231f20;fill-opacity:1;fill-rule:nonzero;stroke:none"
         d="m 1371.99,96.9648 c -0.38,4.8242 -2.68,8.1832 -7.88,8.1832 -6.98,0 -9.65,-6.0464 -9.65,-15.0777 0,-9.0234 2.67,-15.0781 9.65,-15.0781 4.82,0 7.8,3.1445 8.18,8.6523 h 7.28 c -0.62,-8.6523 -7.05,-13.9257 -15.54,-13.9257 -12.33,0 -17.22,8.7187 -17.22,20.0468 0,11.2504 5.65,20.6644 17.83,20.6644 8.12,0 14.23,-5.125 14.62,-13.4652 h -7.27" /><path
         id="path108"
         style="fill:#231f20;fill-opacity:1;fill-rule:nonzero;stroke:none"
         d="m 1389.75,70.8594 v 55.2616 h 7.27 v -21.969 h 0.15 c 2.76,4.286 6.89,6.278 12.47,6.278 10.03,0 13.17,-6.66 13.17,-13.5433 V 70.8594 h -7.28 v 22.7344 c 0,6.7302 -1.76,11.0942 -8.56,11.2502 -2.91,0.07 -7.36,-2.137 -8.73,-5.3596 -1.68,-3.9766 -1.22,-6.7383 -1.22,-8.8789 V 70.8594 h -7.27" /><path
         id="path110"
         style="fill:#231f20;fill-opacity:1;fill-rule:nonzero;stroke:none"
         d="m 1460.39,109.277 h 7.27 V 70.8594 h -7.12 v 5.664 h -0.15 c -2.91,-4.8242 -7.81,-6.8046 -13.17,-6.8046 -8.04,0 -12.63,6.1132 -12.63,13.8476 v 25.7106 h 7.27 V 86.5547 c 0,-6.6602 1.54,-11.5625 8.5,-11.5625 2.98,0 7.05,1.5312 8.57,5.5156 1.38,3.5938 1.46,8.1055 1.46,9.0235 v 19.7457" /><path
         id="path112"
         style="fill:#231f20;fill-opacity:1;fill-rule:nonzero;stroke:none"
         d="m 1479.59,70.8594 v 55.2616 h 7.28 V 70.8594 h -7.28" /><path
         id="path114"
         style="fill:#231f20;fill-opacity:1;fill-rule:nonzero;stroke:none"
         d="m 1504.24,88.6914 c -0.53,-6.7266 2.22,-13.6992 9.65,-13.6992 5.66,0 8.5,2.2266 9.34,7.8125 h 7.65 c -1.15,-8.7305 -7.89,-13.0859 -17.07,-13.0859 -12.32,0 -17.22,8.7187 -17.22,20.0468 0,11.2504 5.66,20.6644 17.83,20.6644 11.48,-0.223 16.91,-7.5 16.91,-18.1331 v -3.6055 z m 19.44,5.0508 c 0.15,6.4338 -2.76,11.4058 -9.79,11.4058 -6.05,0 -9.65,-5.128 -9.65,-11.4058 h 19.44" /><path
         id="path116"
         style="fill:#231f20;fill-opacity:1;fill-rule:nonzero;stroke:none"
         d="m 208.191,0 v 283.469 h -9.695 V 0 h 9.695" /><path
         id="path118"
         style="fill:#231f20;fill-opacity:1;fill-rule:nonzero;stroke:none"
         d="m 52.7227,189.23 c 4.6015,6.489 15.1484,26.77 45.9687,26.77 21.7186,0 33.2616,-8.652 37.8516,-12.977 13.254,-12.984 14.062,-31.64 14.062,-42.179 V 70.8906 H 94.9023 v 79.0664 c 0,1.598 -0.2539,20.078 -18.9257,20.078 -19.7461,0 -20.2735,-18.14 -20.2735,-22.988 V 70.8906 H 0 V 212.492 H 52.7227 V 189.23" /><path
         id="path120"
         style="fill:#231f20;fill-opacity:1;fill-rule:nonzero;stroke:none"
         d="m 455.391,215.742 c -10.438,0 -18.907,-8.465 -18.907,-18.902 0,-10.438 8.469,-18.895 18.907,-18.895 9.57,0 13.808,6.899 13.925,6.547 5.411,-16.508 -23.293,-102.1365 -62.519,-102.1365 -12.695,0 -16.629,10.2734 -16.629,23.5745 0,15.722 4.539,31.75 10.293,53.523 6.043,21.465 11.48,42.031 14.519,53.039 h -37.792 c -5.157,-18.57 -42.137,-127.4217 -73.497,-127.4217 -3.925,0 -8.164,4.2383 -8.164,11.7969 0,4.2188 3.621,19.0428 5.45,24.4918 l 12.382,42.329 c 2.715,8.773 6.653,20.25 6.653,28.718 0,14.817 -10.278,23.289 -22.367,23.289 -34.168,0 -48.379,-30.539 -55.348,-42.937 l 5.762,-3.633 c 3.32,5.441 18.437,31.141 28.718,31.141 1.516,0 2.727,-1.809 2.727,-7.254 0,-3.625 -2.113,-11.785 -4.238,-19.344 l -13,-42.934 C 260.145,122.863 255,107.746 255,96.8672 c 0,-19.9609 15.129,-29.9414 28.43,-29.9414 48.484,0 69.547,58.6722 76.504,75.5902 l 0.605,-0.606 c -0.91,-3.332 -5.148,-21.156 -5.148,-30.238 0,-25.9962 11.613,-44.7462 37.011,-44.7462 73.621,0 113.801,148.8162 62.989,148.8162" /></g></g></svg>