<?xml version="1.0" encoding="utf-8"?>
<!-- Generator: Adobe Illustrator 19.2.1, SVG Export Plug-In . SVG Version: 6.00 Build 0)  -->
<svg version="1.1"
	 id="svg2" xmlns:cc="http://creativecommons.org/ns#" xmlns:dc="http://purl.org/dc/elements/1.1/" xmlns:rdf="http://www.w3.org/1999/02/22-rdf-syntax-ns#" xmlns:svg="http://www.w3.org/2000/svg"
	 xmlns="http://www.w3.org/2000/svg" xmlns:xlink="http://www.w3.org/1999/xlink" x="0px" y="0px" viewBox="0 0 65.5 37.8"
	 style="enable-background:new 0 0 65.5 37.8;" xml:space="preserve">
<style type="text/css">
	.st0{fill:#231F20;}
</style>
<g id="g10" transform="matrix(1.3333333,0,0,-1.3333333,0,37.8)">
	<g id="g12" transform="scale(0.1)">
		<path id="path150" class="st0" d="M208.2,0v283.5h-9.7V0H208.2"/>
		<path id="path152" class="st0" d="M52.7,189.3c4.6,6.5,15.1,26.8,46,26.8c21.7,0,33.3-8.7,37.9-13c13.3-13,14.1-31.6,14.1-42.2
			V70.9H94.9V150c0,1.6-0.3,20.1-18.9,20.1c-19.7,0-20.3-18.1-20.3-23V70.9H0v141.6h52.7V189.3"/>
		<path id="path154" class="st0" d="M455.4,215.8c-10.4,0-18.9-8.5-18.9-18.9c0-10.4,8.5-18.9,18.9-18.9c9.6,0,13.8,6.9,13.9,6.5
			C474.7,168,446,82.4,406.8,82.4c-12.7,0-16.6,10.3-16.6,23.6c0,15.7,4.5,31.8,10.3,53.5c6,21.5,11.5,42,14.5,53h-37.8
			C372,194,335.1,85.1,303.7,85.1c-3.9,0-8.2,4.2-8.2,11.8c0,4.2,3.6,19.1,5.5,24.5l12.4,42.3c2.7,8.8,6.7,20.2,6.7,28.7
			c0,14.8-10.3,23.3-22.4,23.3c-34.2,0-48.4-30.5-55.4-42.9l5.8-3.6c3.3,5.4,18.4,31.1,28.7,31.1c1.5,0,2.7-1.8,2.7-7.3
			c0-3.6-2.1-11.8-4.2-19.3l-13-42.9c-2.1-7.9-7.3-23-7.3-33.9c0-20,15.1-29.9,28.4-29.9c48.5,0,69.5,58.7,76.5,75.6l0.6-0.6
			c-0.9-3.3-5.1-21.2-5.1-30.3c0-26,11.6-44.7,37-44.7C466,66.9,506.2,215.8,455.4,215.8"/>
	</g>
</g>
</svg>
